<svg xmlns="http://www.w3.org/2000/svg" xmlns:xlink="http://www.w3.org/1999/xlink" width="100" zoomAndPan="magnify" viewBox="0 0 75 74.999997" height="100" preserveAspectRatio="xMidYMid meet" version="1.0"><defs><g/><clipPath id="8fc72ec1e9"><path d="M 38 27 L 44.261719 27 L 44.261719 34 L 38 34 Z M 38 27 " clip-rule="nonzero"/></clipPath><clipPath id="eb04e67887"><path d="M 30.796875 27 L 37 27 L 37 34 L 30.796875 34 Z M 30.796875 27 " clip-rule="nonzero"/></clipPath><clipPath id="935f9e8f73"><path d="M 35 14.660156 L 40 14.660156 L 40 24 L 35 24 Z M 35 14.660156 " clip-rule="nonzero"/></clipPath><clipPath id="0c8add3bdb"><path d="M 38 21 L 44.261719 21 L 44.261719 28 L 38 28 Z M 38 21 " clip-rule="nonzero"/></clipPath><clipPath id="3b18aaebce"><path d="M 30.796875 21 L 37 21 L 37 28 L 30.796875 28 Z M 30.796875 21 " clip-rule="nonzero"/></clipPath></defs><rect x="-7.5" width="90" fill="#ffffff" y="-7.5" height="89.999996" fill-opacity="1"/><rect x="-7.5" width="90" fill="#ffffff" y="-7.5" height="89.999996" fill-opacity="1"/><rect x="-7.5" width="90" fill="#ffffff" y="-7.5" height="89.999996" fill-opacity="1"/><path fill="#f6ffe9" d="M 38.28125 40.1875 L 38.28125 41.660156 C 38.28125 41.660156 39.035156 38.539062 39.160156 36.367188 L 43.898438 36.367188 L 43.898438 41.558594 C 43.898438 45.328125 41.625 48.539062 38.054688 49.820312 C 37.910156 49.875 37.761719 49.921875 37.609375 49.96875 C 37.460938 49.921875 37.3125 49.875 37.167969 49.820312 C 33.59375 48.539062 31.324219 45.328125 31.324219 41.558594 L 31.324219 36.367188 L 36.777344 36.367188 L 36.777344 33.65625 L 38.28125 33.65625 Z M 38.28125 40.1875 " fill-opacity="1" fill-rule="evenodd"/><g clip-path="url(#8fc72ec1e9)"><path fill="#f6ffe9" d="M 44.238281 27.589844 C 43.828125 27.554688 43.417969 27.5625 43.011719 27.613281 C 42.601562 27.667969 42.203125 27.761719 41.816406 27.902344 C 41.425781 28.039062 41.058594 28.21875 40.710938 28.4375 C 40.363281 28.660156 40.042969 28.914062 39.753906 29.203125 C 39.460938 29.492188 39.203125 29.808594 38.984375 30.15625 C 38.761719 30.5 38.582031 30.867188 38.441406 31.25 C 38.300781 31.636719 38.203125 32.03125 38.152344 32.4375 C 38.097656 32.84375 38.089844 33.25 38.128906 33.65625 C 38.539062 33.695312 38.949219 33.6875 39.359375 33.632812 C 39.765625 33.582031 40.164062 33.484375 40.550781 33.347656 C 40.941406 33.207031 41.308594 33.027344 41.65625 32.808594 C 42.003906 32.589844 42.324219 32.335938 42.613281 32.046875 C 42.90625 31.753906 43.164062 31.4375 43.382812 31.09375 C 43.605469 30.746094 43.785156 30.382812 43.925781 29.996094 C 44.066406 29.613281 44.164062 29.21875 44.214844 28.8125 C 44.269531 28.40625 44.277344 28 44.238281 27.589844 Z M 44.238281 27.589844 " fill-opacity="1" fill-rule="evenodd"/></g><g clip-path="url(#eb04e67887)"><path fill="#f6ffe9" d="M 30.820312 27.589844 C 31.648438 27.515625 32.457031 27.617188 33.242188 27.898438 C 34.027344 28.183594 34.714844 28.617188 35.304688 29.203125 C 35.898438 29.789062 36.335938 30.472656 36.617188 31.25 C 36.902344 32.027344 37.007812 32.832031 36.929688 33.65625 C 36.519531 33.695312 36.109375 33.6875 35.699219 33.632812 C 35.292969 33.582031 34.894531 33.484375 34.503906 33.347656 C 34.117188 33.207031 33.75 33.027344 33.402344 32.808594 C 33.054688 32.589844 32.734375 32.335938 32.441406 32.046875 C 32.152344 31.757812 31.894531 31.4375 31.671875 31.09375 C 31.453125 30.746094 31.269531 30.382812 31.132812 29.996094 C 30.992188 29.613281 30.894531 29.21875 30.839844 28.8125 C 30.789062 28.40625 30.78125 28 30.820312 27.589844 Z M 30.820312 27.589844 " fill-opacity="1" fill-rule="evenodd"/></g><g clip-path="url(#935f9e8f73)"><path fill="#f6ffe9" d="M 37.53125 14.699219 C 37.847656 14.960938 38.128906 15.253906 38.382812 15.578125 C 38.632812 15.902344 38.847656 16.25 39.023438 16.621094 C 39.199219 16.988281 39.328125 17.375 39.417969 17.773438 C 39.507812 18.175781 39.554688 18.578125 39.554688 18.988281 C 39.554688 19.398438 39.507812 19.800781 39.417969 20.199219 C 39.328125 20.601562 39.199219 20.984375 39.023438 21.355469 C 38.847656 21.726562 38.632812 22.074219 38.382812 22.398438 C 38.128906 22.722656 37.847656 23.015625 37.53125 23.277344 C 37.210938 23.015625 36.929688 22.722656 36.675781 22.398438 C 36.425781 22.074219 36.210938 21.726562 36.035156 21.355469 C 35.863281 20.984375 35.730469 20.601562 35.640625 20.199219 C 35.550781 19.800781 35.503906 19.398438 35.503906 18.988281 C 35.503906 18.578125 35.550781 18.175781 35.640625 17.773438 C 35.730469 17.375 35.863281 16.988281 36.035156 16.621094 C 36.210938 16.25 36.425781 15.902344 36.675781 15.578125 C 36.929688 15.253906 37.210938 14.960938 37.53125 14.699219 Z M 37.53125 14.699219 " fill-opacity="1" fill-rule="evenodd"/></g><g clip-path="url(#0c8add3bdb)"><path fill="#f6ffe9" d="M 44.238281 21.445312 C 43.828125 21.40625 43.417969 21.414062 43.007812 21.46875 C 42.601562 21.519531 42.203125 21.613281 41.8125 21.753906 C 41.425781 21.894531 41.058594 22.074219 40.710938 22.292969 C 40.363281 22.511719 40.042969 22.765625 39.75 23.058594 C 39.460938 23.347656 39.203125 23.664062 38.980469 24.011719 C 38.761719 24.355469 38.578125 24.722656 38.4375 25.105469 C 38.300781 25.492188 38.203125 25.886719 38.152344 26.292969 C 38.097656 26.699219 38.089844 27.105469 38.128906 27.511719 C 38.539062 27.550781 38.949219 27.542969 39.359375 27.492188 C 39.765625 27.4375 40.164062 27.34375 40.554688 27.203125 C 40.941406 27.0625 41.308594 26.886719 41.65625 26.664062 C 42.003906 26.445312 42.324219 26.191406 42.617188 25.902344 C 42.910156 25.613281 43.164062 25.292969 43.386719 24.949219 C 43.609375 24.601562 43.789062 24.238281 43.929688 23.851562 C 44.070312 23.46875 44.164062 23.070312 44.21875 22.664062 C 44.269531 22.257812 44.277344 21.851562 44.238281 21.445312 Z M 44.238281 21.445312 " fill-opacity="1" fill-rule="evenodd"/></g><g clip-path="url(#3b18aaebce)"><path fill="#f6ffe9" d="M 30.820312 21.445312 C 31.648438 21.367188 32.457031 21.472656 33.242188 21.753906 C 34.027344 22.035156 34.714844 22.46875 35.304688 23.054688 C 35.898438 23.640625 36.335938 24.324219 36.621094 25.105469 C 36.902344 25.886719 37.007812 26.6875 36.929688 27.511719 C 36.519531 27.550781 36.109375 27.542969 35.699219 27.492188 C 35.289062 27.4375 34.890625 27.34375 34.503906 27.203125 C 34.117188 27.0625 33.75 26.886719 33.398438 26.664062 C 33.050781 26.445312 32.734375 26.191406 32.441406 25.902344 C 32.148438 25.613281 31.894531 25.292969 31.671875 24.949219 C 31.449219 24.601562 31.269531 24.238281 31.128906 23.851562 C 30.988281 23.46875 30.894531 23.070312 30.839844 22.664062 C 30.789062 22.257812 30.78125 21.851562 30.820312 21.445312 Z M 30.820312 21.445312 " fill-opacity="1" fill-rule="evenodd"/></g><g fill="#f6ffe9" fill-opacity="1"><g transform="translate(19.583834, 58.621759)"><g><path d="M 2.90625 -0.796875 L 1.171875 -0.796875 L 0.84375 0 L -0.046875 0 L 1.609375 -3.734375 L 2.46875 -3.734375 L 4.140625 0 L 3.234375 0 Z M 2.625 -1.453125 L 2.03125 -2.875 L 1.4375 -1.453125 Z M 2.625 -1.453125 "/></g></g></g><g fill="#f6ffe9" fill-opacity="1"><g transform="translate(25.284551, 58.621759)"><g><path d="M 3.84375 0 L 3.828125 -2.234375 L 2.734375 -0.390625 L 2.34375 -0.390625 L 1.25 -2.1875 L 1.25 0 L 0.4375 0 L 0.4375 -3.734375 L 1.15625 -3.734375 L 2.546875 -1.40625 L 3.921875 -3.734375 L 4.640625 -3.734375 L 4.640625 0 Z M 3.84375 0 "/></g></g></g><g fill="#f6ffe9" fill-opacity="1"><g transform="translate(31.99301, 58.621759)"><g><path d="M 2.90625 -0.796875 L 1.171875 -0.796875 L 0.84375 0 L -0.046875 0 L 1.609375 -3.734375 L 2.46875 -3.734375 L 4.140625 0 L 3.234375 0 Z M 2.625 -1.453125 L 2.03125 -2.875 L 1.4375 -1.453125 Z M 2.625 -1.453125 "/></g></g></g><g fill="#f6ffe9" fill-opacity="1"><g transform="translate(37.693729, 58.621759)"><g><path d="M 2.09375 0.0625 C 1.5625 0.0625 1.144531 -0.0820312 0.84375 -0.375 C 0.550781 -0.675781 0.40625 -1.097656 0.40625 -1.640625 L 0.40625 -3.734375 L 1.265625 -3.734375 L 1.265625 -1.671875 C 1.265625 -1.003906 1.546875 -0.671875 2.109375 -0.671875 C 2.378906 -0.671875 2.582031 -0.75 2.71875 -0.90625 C 2.863281 -1.070312 2.9375 -1.328125 2.9375 -1.671875 L 2.9375 -3.734375 L 3.78125 -3.734375 L 3.78125 -1.640625 C 3.78125 -1.097656 3.632812 -0.675781 3.34375 -0.375 C 3.050781 -0.0820312 2.632812 0.0625 2.09375 0.0625 Z M 2.09375 0.0625 "/></g></g></g><g fill="#f6ffe9" fill-opacity="1"><g transform="translate(43.511747, 58.621759)"><g><path d="M 6.078125 -3.734375 L 4.859375 0 L 3.9375 0 L 3.109375 -2.53125 L 2.265625 0 L 1.34375 0 L 0.125 -3.734375 L 1.015625 -3.734375 L 1.859375 -1.109375 L 2.734375 -3.734375 L 3.53125 -3.734375 L 4.390625 -1.09375 L 5.25 -3.734375 Z M 6.078125 -3.734375 "/></g></g></g><g fill="#f6ffe9" fill-opacity="1"><g transform="translate(51.329254, 58.621759)"><g><path d="M 2.90625 -0.796875 L 1.171875 -0.796875 L 0.84375 0 L -0.046875 0 L 1.609375 -3.734375 L 2.46875 -3.734375 L 4.140625 0 L 3.234375 0 Z M 2.625 -1.453125 L 2.03125 -2.875 L 1.4375 -1.453125 Z M 2.625 -1.453125 "/></g></g></g><g fill="#f6ffe9" fill-opacity="1"><g transform="translate(27.662048, 63.776506)"><g><path d="M 1.015625 0.03125 C 0.835938 0.03125 0.679688 -0.00390625 0.546875 -0.078125 C 0.410156 -0.160156 0.300781 -0.265625 0.21875 -0.390625 C 0.144531 -0.523438 0.109375 -0.675781 0.109375 -0.84375 C 0.109375 -1.007812 0.144531 -1.160156 0.21875 -1.296875 C 0.300781 -1.429688 0.410156 -1.535156 0.546875 -1.609375 C 0.691406 -1.679688 0.847656 -1.71875 1.015625 -1.71875 C 1.148438 -1.71875 1.273438 -1.691406 1.390625 -1.640625 C 1.503906 -1.597656 1.601562 -1.53125 1.6875 -1.4375 L 1.484375 -1.25 C 1.359375 -1.375 1.207031 -1.4375 1.03125 -1.4375 C 0.914062 -1.4375 0.8125 -1.410156 0.71875 -1.359375 C 0.625 -1.316406 0.550781 -1.25 0.5 -1.15625 C 0.445312 -1.0625 0.421875 -0.957031 0.421875 -0.84375 C 0.421875 -0.726562 0.445312 -0.625 0.5 -0.53125 C 0.550781 -0.445312 0.625 -0.378906 0.71875 -0.328125 C 0.8125 -0.273438 0.914062 -0.25 1.03125 -0.25 C 1.207031 -0.25 1.359375 -0.316406 1.484375 -0.453125 L 1.6875 -0.265625 C 1.601562 -0.171875 1.503906 -0.0976562 1.390625 -0.046875 C 1.273438 0.00390625 1.148438 0.03125 1.015625 0.03125 Z M 1.015625 0.03125 "/></g></g></g><g fill="#f6ffe9" fill-opacity="1"><g transform="translate(30.118383, 63.776506)"><g><path d="M 1.34375 0 L 0.984375 -0.5 C 0.972656 -0.5 0.953125 -0.5 0.921875 -0.5 L 0.546875 -0.5 L 0.546875 0 L 0.234375 0 L 0.234375 -1.6875 L 0.921875 -1.6875 C 1.066406 -1.6875 1.191406 -1.660156 1.296875 -1.609375 C 1.410156 -1.566406 1.492188 -1.5 1.546875 -1.40625 C 1.609375 -1.320312 1.640625 -1.21875 1.640625 -1.09375 C 1.640625 -0.96875 1.609375 -0.859375 1.546875 -0.765625 C 1.484375 -0.671875 1.394531 -0.601562 1.28125 -0.5625 L 1.671875 0 Z M 1.328125 -1.09375 C 1.328125 -1.195312 1.289062 -1.273438 1.21875 -1.328125 C 1.144531 -1.390625 1.039062 -1.421875 0.90625 -1.421875 L 0.546875 -1.421875 L 0.546875 -0.75 L 0.90625 -0.75 C 1.039062 -0.75 1.144531 -0.78125 1.21875 -0.84375 C 1.289062 -0.90625 1.328125 -0.988281 1.328125 -1.09375 Z M 1.328125 -1.09375 "/></g></g></g><g fill="#f6ffe9" fill-opacity="1"><g transform="translate(32.58438, 63.776506)"><g><path d="M 1.5 -0.265625 L 1.5 0 L 0.234375 0 L 0.234375 -1.6875 L 1.46875 -1.6875 L 1.46875 -1.4375 L 0.546875 -1.4375 L 0.546875 -0.984375 L 1.359375 -0.984375 L 1.359375 -0.734375 L 0.546875 -0.734375 L 0.546875 -0.265625 Z M 1.5 -0.265625 "/></g></g></g><g fill="#f6ffe9" fill-opacity="1"><g transform="translate(34.903045, 63.776506)"><g><path d="M 1.328125 -0.390625 L 0.484375 -0.390625 L 0.3125 0 L -0.015625 0 L 0.75 -1.6875 L 1.0625 -1.6875 L 1.828125 0 L 1.5 0 Z M 1.21875 -0.640625 L 0.90625 -1.375 L 0.59375 -0.640625 Z M 1.21875 -0.640625 "/></g></g></g><g fill="#f6ffe9" fill-opacity="1"><g transform="translate(37.412517, 63.776506)"><g><path d="M 0.578125 -1.421875 L 0.015625 -1.421875 L 0.015625 -1.6875 L 1.453125 -1.6875 L 1.453125 -1.421875 L 0.890625 -1.421875 L 0.890625 0 L 0.578125 0 Z M 0.578125 -1.421875 "/></g></g></g><g fill="#f6ffe9" fill-opacity="1"><g transform="translate(39.566942, 63.776506)"><g><path d="M 0.234375 -1.6875 L 0.546875 -1.6875 L 0.546875 0 L 0.234375 0 Z M 0.234375 -1.6875 "/></g></g></g><g fill="#f6ffe9" fill-opacity="1"><g transform="translate(41.037844, 63.776506)"><g><path d="M 1.78125 -1.6875 L 1.03125 0 L 0.734375 0 L -0.015625 -1.6875 L 0.328125 -1.6875 L 0.890625 -0.390625 L 1.46875 -1.6875 Z M 1.78125 -1.6875 "/></g></g></g><g fill="#f6ffe9" fill-opacity="1"><g transform="translate(43.499011, 63.776506)"><g><path d="M 1.5 -0.265625 L 1.5 0 L 0.234375 0 L 0.234375 -1.6875 L 1.46875 -1.6875 L 1.46875 -1.4375 L 0.546875 -1.4375 L 0.546875 -0.984375 L 1.359375 -0.984375 L 1.359375 -0.734375 L 0.546875 -0.734375 L 0.546875 -0.265625 Z M 1.5 -0.265625 "/></g></g></g><g fill="#f6ffe9" fill-opacity="1"><g transform="translate(45.817674, 63.776506)"><g><path d="M 0.75 0.03125 C 0.625 0.03125 0.5 0.0078125 0.375 -0.03125 C 0.25 -0.0703125 0.148438 -0.117188 0.078125 -0.171875 L 0.1875 -0.421875 C 0.257812 -0.367188 0.34375 -0.320312 0.4375 -0.28125 C 0.539062 -0.25 0.644531 -0.234375 0.75 -0.234375 C 0.875 -0.234375 0.96875 -0.253906 1.03125 -0.296875 C 1.09375 -0.335938 1.125 -0.390625 1.125 -0.453125 C 1.125 -0.503906 1.109375 -0.546875 1.078125 -0.578125 C 1.046875 -0.609375 1 -0.628906 0.9375 -0.640625 C 0.882812 -0.660156 0.8125 -0.6875 0.71875 -0.71875 C 0.59375 -0.75 0.488281 -0.773438 0.40625 -0.796875 C 0.332031 -0.828125 0.265625 -0.875 0.203125 -0.9375 C 0.148438 -1.007812 0.125 -1.101562 0.125 -1.21875 C 0.125 -1.3125 0.148438 -1.394531 0.203125 -1.46875 C 0.253906 -1.539062 0.328125 -1.597656 0.421875 -1.640625 C 0.523438 -1.691406 0.648438 -1.71875 0.796875 -1.71875 C 0.898438 -1.71875 1.003906 -1.703125 1.109375 -1.671875 C 1.210938 -1.648438 1.300781 -1.613281 1.375 -1.5625 L 1.265625 -1.328125 C 1.191406 -1.367188 1.113281 -1.398438 1.03125 -1.421875 C 0.957031 -1.441406 0.878906 -1.453125 0.796875 -1.453125 C 0.671875 -1.453125 0.578125 -1.429688 0.515625 -1.390625 C 0.460938 -1.347656 0.4375 -1.296875 0.4375 -1.234375 C 0.4375 -1.179688 0.453125 -1.140625 0.484375 -1.109375 C 0.515625 -1.078125 0.554688 -1.050781 0.609375 -1.03125 C 0.671875 -1.019531 0.742188 -1 0.828125 -0.96875 C 0.960938 -0.945312 1.066406 -0.921875 1.140625 -0.890625 C 1.222656 -0.859375 1.289062 -0.804688 1.34375 -0.734375 C 1.40625 -0.671875 1.4375 -0.585938 1.4375 -0.484375 C 1.4375 -0.390625 1.410156 -0.300781 1.359375 -0.21875 C 1.304688 -0.144531 1.226562 -0.0820312 1.125 -0.03125 C 1.019531 0.0078125 0.894531 0.03125 0.75 0.03125 Z M 0.75 0.03125 "/></g></g></g></svg>