<svg width="66" height="89" viewBox="0 0 66 89" fill="none" xmlns="http://www.w3.org/2000/svg">
<mask id="mask0_406_178" style="mask-type:luminance" maskUnits="userSpaceOnUse" x="21" y="34" width="24" height="31">
<path d="M21.2441 34.1187H44.443V64.0212H21.2441V34.1187Z" fill="white"/>
</mask>
<g mask="url(#mask0_406_178)">
<path fill-rule="evenodd" clip-rule="evenodd" d="M33.9538 46.2318V48.9018C33.9538 48.9018 35.3208 43.2452 35.543 39.3148H44.1275V48.717C44.1275 55.5469 40.0121 61.3599 33.5431 63.6798C33.2783 63.7758 33.0098 63.8647 32.7396 63.95C32.4676 63.8647 32.201 63.7758 31.9343 63.6798C25.4635 61.3581 21.3535 55.5433 21.3535 48.717V39.3148H31.2304V34.4048H33.9538V46.2318Z" fill="white"/>
</g>
<mask id="mask1_406_178" style="mask-type:luminance" maskUnits="userSpaceOnUse" x="33" y="23" width="12" height="12">
<path d="M33.5322 23.1963H44.7886V34.5735H33.5322V23.1963Z" fill="white"/>
</mask>
<g mask="url(#mask1_406_178)">
<path fill-rule="evenodd" clip-rule="evenodd" d="M44.7438 23.4226C44.3722 23.3888 43.9989 23.3746 43.6274 23.3817C43.2558 23.3888 42.8861 23.4154 42.5163 23.4634C42.1466 23.5114 41.7804 23.5772 41.4213 23.6625C41.0568 23.7514 40.7013 23.8581 40.3529 23.9825C40.0027 24.107 39.6596 24.2527 39.3271 24.4163C38.9912 24.5798 38.6694 24.7576 38.353 24.9585C38.0401 25.1558 37.7361 25.3709 37.4463 25.602C37.1566 25.8313 36.8793 26.0784 36.6162 26.3397C36.3531 26.6011 36.106 26.8748 35.8713 27.1646C35.6402 27.4526 35.4233 27.753 35.2242 28.0641C35.0234 28.377 34.842 28.6987 34.6785 29.0294C34.5132 29.36 34.3674 29.7014 34.2412 30.048C34.115 30.3947 34.0083 30.7484 33.9194 31.1075C33.8323 31.4666 33.7647 31.8293 33.7168 32.1955C33.6688 32.5617 33.6421 32.9314 33.635 33.3012C33.6296 33.6692 33.6421 34.0389 33.6759 34.4051C34.0456 34.4389 34.4189 34.4531 34.7905 34.446C35.162 34.4389 35.5318 34.4122 35.9015 34.3642C36.2713 34.318 36.6357 34.2522 36.9966 34.1634C37.361 34.0763 37.7166 33.9696 38.065 33.8452C38.4152 33.7189 38.7583 33.5749 39.0907 33.4114C39.4267 33.2496 39.7485 33.0665 40.0649 32.8692C40.3778 32.6719 40.6817 32.4568 40.9715 32.2257C41.2613 31.9946 41.5386 31.7493 41.8017 31.4862C42.0648 31.2248 42.3119 30.9511 42.5448 30.6631C42.7776 30.3751 42.9945 30.0747 43.1936 29.7618C43.3945 29.4507 43.5758 29.1289 43.7394 28.7983C43.9047 28.4676 44.0487 28.1263 44.1749 27.7797C44.3011 27.433 44.4096 27.0793 44.4967 26.7202C44.5855 26.3593 44.6531 25.9967 44.7011 25.6322C44.7473 25.2642 44.7758 24.8963 44.7829 24.5265C44.7882 24.1603 44.7758 23.7905 44.742 23.4226H44.7438Z" fill="white"/>
</g>
<mask id="mask2_406_178" style="mask-type:luminance" maskUnits="userSpaceOnUse" x="20" y="23" width="12" height="12">
<path d="M20.3984 23.1968H31.6672V34.574H20.3984V23.1968Z" fill="white"/>
</mask>
<g mask="url(#mask2_406_178)">
<path fill-rule="evenodd" clip-rule="evenodd" d="M20.4383 23.423C21.1814 23.3555 21.9227 23.3679 22.6622 23.4621C23.4053 23.5563 24.1252 23.7288 24.8292 23.9812C25.5296 24.2319 26.1963 24.559 26.8273 24.9554C27.4584 25.3554 28.0362 25.8158 28.5624 26.342C29.0921 26.8646 29.5561 27.4406 29.9578 28.0646C30.3596 28.6903 30.6867 29.3498 30.9391 30.0485C31.1933 30.7453 31.3693 31.4617 31.4635 32.1959C31.5595 32.9319 31.572 33.6696 31.5044 34.4056C31.1329 34.4394 30.7614 34.4536 30.388 34.4465C30.0165 34.4394 29.6467 34.4127 29.277 34.3647C28.9072 34.3185 28.5428 34.2527 28.1819 34.1656C27.8193 34.0767 27.462 33.9701 27.1135 33.8456C26.7633 33.7194 26.422 33.5754 26.0878 33.4119C25.7518 33.2501 25.4301 33.0705 25.1154 32.8697C24.8025 32.6723 24.4986 32.4572 24.207 32.2261C23.9173 31.995 23.6399 31.7497 23.3768 31.4884C23.1137 31.2289 22.8666 30.9515 22.6338 30.6636C22.3991 30.3756 22.184 30.0751 21.9849 29.7658C21.7858 29.4512 21.6027 29.1294 21.4374 28.7988C21.2738 28.4681 21.1298 28.1268 21.0018 27.7801C20.8756 27.4335 20.769 27.0797 20.6801 26.7206C20.5947 26.3633 20.5254 25.9989 20.4792 25.6327C20.4312 25.2665 20.4028 24.8967 20.3974 24.527C20.3903 24.1608 20.4028 23.791 20.4383 23.423Z" fill="white"/>
</g>
<mask id="mask3_406_178" style="mask-type:luminance" maskUnits="userSpaceOnUse" x="28" y="0" width="9" height="16">
<path d="M28.7637 0H36.262V15.8605H28.7637V0Z" fill="white"/>
</mask>
<g mask="url(#mask3_406_178)">
<path fill-rule="evenodd" clip-rule="evenodd" d="M32.5924 0.0722656C32.8786 0.306921 33.1505 0.559353 33.4065 0.827784C33.6661 1.09266 33.9078 1.37176 34.1354 1.6633C34.3647 1.95662 34.5763 2.2606 34.7682 2.57525C34.962 2.89168 35.138 3.21522 35.2962 3.5512C35.4527 3.88541 35.5913 4.22673 35.7122 4.57693C35.8331 4.92536 35.9344 5.28267 36.0144 5.64355C36.0962 6.00264 36.1566 6.36706 36.1975 6.73327C36.2384 7.10125 36.258 7.47101 36.258 7.83899C36.258 8.20875 36.2384 8.57851 36.1975 8.94472C36.1566 9.3127 36.0962 9.67535 36.0144 10.0362C35.9344 10.3971 35.8331 10.7526 35.7122 11.1028C35.5913 11.4513 35.4527 11.7944 35.2962 12.1286C35.138 12.4645 34.962 12.7881 34.7682 13.1027C34.5763 13.4192 34.3647 13.7231 34.1354 14.0147C33.9078 14.308 33.6661 14.5871 33.4065 14.852C33.1505 15.1204 32.8786 15.3693 32.5924 15.6075C32.3079 15.3693 32.0342 15.1204 31.7764 14.852C31.5186 14.5871 31.2751 14.308 31.0475 14.0147C30.82 13.7231 30.6102 13.4192 30.4147 13.1027C30.2227 12.7881 30.0449 12.4645 29.8885 12.1286C29.7303 11.7944 29.5916 11.4513 29.4725 11.1028C29.3516 10.7526 29.2521 10.3971 29.1703 10.0362C29.0885 9.67535 29.0281 9.3127 28.989 8.94472C28.9481 8.57851 28.9268 8.20875 28.9268 7.83899C28.9268 7.47101 28.9481 7.10125 28.989 6.73327C29.0281 6.36706 29.0885 6.00264 29.1703 5.64355C29.2521 5.28267 29.3516 4.92536 29.4725 4.57693C29.5916 4.22673 29.7303 3.88541 29.8885 3.5512C30.0449 3.21522 30.2227 2.89168 30.4147 2.57525C30.6102 2.2606 30.82 1.95662 31.0475 1.6633C31.2751 1.37176 31.5186 1.09266 31.7764 0.827784C32.0342 0.559353 32.3079 0.306921 32.5924 0.0722656Z" fill="white"/>
</g>
<mask id="mask4_406_178" style="mask-type:luminance" maskUnits="userSpaceOnUse" x="33" y="11" width="12" height="13">
<path d="M33.5322 11.8198H44.7886V23.4086H33.5322V11.8198Z" fill="white"/>
</mask>
<g mask="url(#mask4_406_178)">
<path fill-rule="evenodd" clip-rule="evenodd" d="M44.7438 12.2897C44.3722 12.256 43.9989 12.2417 43.6274 12.2489C43.2558 12.256 42.8861 12.2826 42.5163 12.3306C42.1466 12.3786 41.7804 12.4444 41.4177 12.5333C41.0568 12.6186 40.7013 12.7253 40.3493 12.8497C40.0009 12.9777 39.6578 13.1235 39.3254 13.2835C38.9894 13.447 38.6641 13.6283 38.3512 13.8257C38.0365 14.0248 37.7343 14.2416 37.4446 14.4727C37.153 14.7038 36.8775 14.9492 36.6144 15.2087C36.3513 15.4736 36.1006 15.7473 35.8695 16.0353C35.6367 16.3233 35.4216 16.6255 35.2207 16.9366C35.0216 17.2495 34.8403 17.5713 34.6749 17.9019C34.5114 18.2326 34.3656 18.5739 34.2394 18.9205C34.1114 19.2707 34.0047 19.6209 33.9194 19.9818C33.8305 20.3409 33.763 20.7035 33.715 21.0715C33.667 21.4377 33.6421 21.8057 33.635 22.1755C33.6296 22.5452 33.6421 22.9132 33.6759 23.283C34.0456 23.315 34.4189 23.3274 34.7905 23.3203C35.162 23.315 35.5336 23.2865 35.9033 23.2421C36.2731 23.1941 36.6393 23.1265 37.0001 23.0394C37.3628 22.9541 37.7183 22.8474 38.0685 22.7195C38.4187 22.595 38.7601 22.4492 39.096 22.2875C39.4285 22.1239 39.7538 21.9444 40.0667 21.7453C40.3813 21.548 40.6835 21.3311 40.9733 21.1C41.2648 20.8689 41.5404 20.6218 41.8052 20.3605C42.0701 20.1009 42.3172 19.8254 42.5501 19.5374C42.7812 19.2476 42.9998 18.9472 43.1989 18.6343C43.398 18.3232 43.5794 18.0015 43.7429 17.6708C43.9082 17.3366 44.054 16.9988 44.1785 16.6504C44.3064 16.3038 44.4131 15.9482 44.5002 15.5909C44.5873 15.23 44.6549 14.8674 44.7029 14.5012C44.7509 14.135 44.7775 13.767 44.7846 13.3972C44.7918 13.0275 44.7775 12.6577 44.7438 12.2897Z" fill="white"/>
</g>
<mask id="mask5_406_178" style="mask-type:luminance" maskUnits="userSpaceOnUse" x="20" y="11" width="12" height="13">
<path d="M20.3984 11.8198H31.6672V23.4086H20.3984V11.8198Z" fill="white"/>
</mask>
<g mask="url(#mask5_406_178)">
<path fill-rule="evenodd" clip-rule="evenodd" d="M20.4383 12.2892C21.1814 12.2216 21.9227 12.2358 22.6622 12.3283C23.4053 12.4243 24.1252 12.5967 24.8292 12.8474C25.5296 13.1016 26.1963 13.4269 26.8273 13.8233C27.4584 14.2215 28.0362 14.6819 28.5624 15.2081C29.0939 15.7326 29.5579 16.3068 29.9596 16.9325C30.3596 17.5583 30.6885 18.2213 30.9427 18.9182C31.1969 19.6168 31.3711 20.3332 31.4653 21.0674C31.5595 21.8052 31.572 22.5429 31.5044 23.2824C31.1329 23.3144 30.7614 23.3269 30.388 23.3197C30.0165 23.3144 29.645 23.286 29.277 23.2415C28.9072 23.1935 28.5428 23.126 28.1802 23.0389C27.8193 22.9535 27.462 22.8469 27.1118 22.7189C26.7616 22.5944 26.4185 22.4487 26.086 22.2869C25.7501 22.1234 25.4247 21.9438 25.1119 21.7447C24.7972 21.5474 24.495 21.3305 24.2052 21.0994C23.9155 20.8683 23.6382 20.6212 23.3751 20.3599C23.112 20.1003 22.8631 19.8248 22.6302 19.5368C22.3973 19.2471 22.1822 18.9466 21.9831 18.6338C21.7822 18.3227 21.5991 18.0009 21.4356 17.6702C21.272 17.336 21.1263 16.9983 21.0001 16.6499C20.8738 16.3032 20.7672 15.9477 20.6783 15.5903C20.5912 15.2295 20.5236 14.8668 20.4756 14.5006C20.4276 14.1344 20.4028 13.7664 20.3974 13.3967C20.3903 13.0269 20.4028 12.6572 20.4383 12.2892Z" fill="white"/>
</g>
<path d="M5.34551 78.1672H2.20611L1.60703 79.6195H0L3.02207 72.8501H4.56511L7.5854 79.6195H5.94459L5.34551 78.1672ZM4.85487 76.9797L3.7847 74.3931L2.71453 76.9797H4.85487Z" fill="white"/>
<path d="M17.3753 79.6195L17.3665 75.5629L15.3701 78.9031H14.6715L12.684 75.6446V79.6195H11.2139V72.8501H12.5116L15.043 77.0614L17.5389 72.8501H18.8277L18.8455 79.6195H17.3753Z" fill="white"/>
<path d="M27.8191 78.1672H24.6797L24.0807 79.6195H22.4736L25.4957 72.8501H27.0387L30.059 79.6195H28.4182L27.8191 78.1672ZM27.3285 76.9797L26.2583 74.3931L25.1882 76.9797H27.3285Z" fill="white"/>
<path d="M36.7003 79.7369C35.7315 79.7369 34.9777 79.472 34.4409 78.9387C33.9004 78.4018 33.6338 77.6374 33.6338 76.6437V72.8501H35.2035V76.5886C35.2035 77.801 35.7048 78.4036 36.7092 78.4036C37.1981 78.4036 37.5714 78.2578 37.8256 77.9681C38.0833 77.673 38.2149 77.2125 38.2149 76.5886V72.8501H39.7579V76.6437C39.7579 77.6374 39.4877 78.4018 38.9509 78.9387C38.4104 79.472 37.662 79.7369 36.7003 79.7369Z" fill="white"/>
<path d="M54.4512 72.8501L52.238 79.6195H50.5581L49.0701 75.0367L47.5378 79.6195H45.8579L43.6357 72.8501H45.2606L46.7929 77.6054L48.3804 72.8501H49.8328L51.3758 77.6499L52.9544 72.8501H54.4512Z" fill="white"/>
<path d="M62.8377 78.1672H59.6983L59.0992 79.6195H57.4922L60.5143 72.8501H62.0573L65.0776 79.6195H63.4368L62.8377 78.1672ZM62.3471 76.9797L61.2769 74.3931L60.2049 76.9797H62.3471Z" fill="white"/>
<path d="M16.5448 88.9999C16.2373 88.9999 15.9582 88.9341 15.7111 88.799C15.4604 88.6621 15.2667 88.4737 15.1209 88.2372C14.9805 87.9972 14.9111 87.7252 14.9111 87.4213C14.9111 87.1262 14.9805 86.8577 15.1209 86.6213C15.2667 86.3813 15.4604 86.1929 15.7111 86.0596C15.9653 85.9209 16.2462 85.8516 16.5537 85.8516C16.8008 85.8516 17.0284 85.896 17.2346 85.9867C17.4461 86.0738 17.6203 86.1964 17.7608 86.3582L17.3981 86.7031C17.1741 86.4684 16.9021 86.3493 16.5822 86.3493C16.3688 86.3493 16.1768 86.3955 16.0097 86.4862C15.8462 86.5769 15.7146 86.7031 15.6204 86.8666C15.5298 87.0302 15.4835 87.2168 15.4835 87.4213C15.4835 87.6346 15.5298 87.8195 15.6204 87.983C15.7146 88.1466 15.8462 88.2728 16.0097 88.3634C16.1768 88.4541 16.3688 88.5003 16.5822 88.5003C16.9021 88.5003 17.1741 88.3794 17.3981 88.1377L17.7608 88.4825C17.6203 88.6514 17.4461 88.7812 17.2346 88.8719C17.0284 88.9554 16.799 88.9999 16.5448 88.9999Z" fill="white"/>
<path d="M21.5824 88.9541L20.9566 88.0564C20.9317 88.0635 20.8944 88.0653 20.8393 88.0653H20.1496V88.9541H19.5771V85.8965H20.8393C21.1042 85.8965 21.3335 85.9427 21.5291 86.0334C21.7282 86.1187 21.8775 86.2414 21.9824 86.4049C22.0908 86.5685 22.1459 86.764 22.1459 86.9862C22.1459 87.2173 22.0872 87.4164 21.9735 87.5853C21.865 87.7471 21.7033 87.8697 21.4917 87.9479L22.201 88.9541H21.5824ZM21.5735 86.9862C21.5735 86.7853 21.5059 86.636 21.3744 86.5311C21.2482 86.4298 21.0597 86.3782 20.8126 86.3782H20.1496V87.5942H20.8126C21.0597 87.5942 21.2482 87.5444 21.3744 87.4395C21.5059 87.3311 21.5735 87.18 21.5735 86.9862Z" fill="white"/>
<path d="M26.3389 88.4741V88.9541H24.0439V85.8965H26.2838V86.3693H24.6146V87.1675H26.0936V87.6297H24.6146V88.4741H26.3389Z" fill="white"/>
<path d="M30.2287 88.2466H28.6964L28.3959 88.9541H27.8164L29.1852 85.8965H29.7488L31.1282 88.9541H30.538L30.2287 88.2466ZM30.0385 87.8022L29.4679 86.46L28.8955 87.8022H30.0385Z" fill="white"/>
<path d="M33.4145 86.3782H32.3994V85.8965H34.9948V86.3782H33.978V88.9541H33.4145V86.3782Z" fill="white"/>
<path d="M36.6904 85.8965H37.2628V88.9541H36.6904V85.8965Z" fill="white"/>
<path d="M42.1578 85.8965L40.8245 88.9541H40.261L38.9277 85.8965H39.5446L40.5614 88.2555L41.5854 85.8965H42.1578Z" fill="white"/>
<path d="M46.1065 88.4741V88.9541H43.8115V85.8965H46.0532V86.3693H44.3839V87.1675H45.863V87.6297H44.3839V88.4741H46.1065Z" fill="white"/>
<path d="M48.9629 88.9999C48.7265 88.9999 48.4954 88.9661 48.2732 88.9003C48.0545 88.8345 47.8821 88.7439 47.7559 88.6265L47.955 88.191C48.0758 88.2888 48.2269 88.3705 48.4083 88.4363C48.5949 88.4985 48.7816 88.527 48.9629 88.527C49.1851 88.527 49.3558 88.4914 49.4713 88.4185C49.5833 88.3457 49.6438 88.2514 49.6438 88.1288C49.6438 88.0381 49.6082 87.9652 49.5424 87.9101C49.482 87.8568 49.402 87.8159 49.3078 87.7839C49.21 87.7466 49.0802 87.7092 48.9167 87.6648C48.682 87.6115 48.49 87.5564 48.3461 87.503C48.2003 87.4479 48.0758 87.3644 47.9727 87.2488C47.8696 87.1279 47.8199 86.9662 47.8199 86.7671C47.8199 86.6 47.8643 86.4453 47.955 86.3049C48.0456 86.1662 48.1843 86.0578 48.3727 85.9778C48.5594 85.8942 48.7851 85.8516 49.0536 85.8516C49.2385 85.8516 49.4251 85.8765 49.6064 85.9227C49.7878 85.9671 49.9424 86.0329 50.0704 86.1235L49.898 86.5591C49.7558 86.4809 49.6153 86.4222 49.4713 86.3866C49.3256 86.3458 49.1851 86.3227 49.0536 86.3227C48.8225 86.3227 48.6536 86.3635 48.5452 86.44C48.4367 86.5129 48.3816 86.6124 48.3816 86.7404C48.3816 86.8257 48.4118 86.8951 48.4723 86.9484C48.538 87.0035 48.6198 87.0479 48.7176 87.0853C48.8136 87.1173 48.9451 87.1528 49.1069 87.1937C49.3362 87.2435 49.5247 87.2986 49.6704 87.3573C49.8162 87.4124 49.9371 87.4995 50.042 87.6204C50.1451 87.7359 50.1966 87.8924 50.1966 88.0915C50.1966 88.2621 50.1504 88.4168 50.0597 88.5554C49.9691 88.6888 49.8286 88.7972 49.6438 88.8807C49.4553 88.959 49.2278 88.9999 48.9629 88.9999Z" fill="white"/>
</svg>
